<?xml version="1.0" standalone="no"?><!DOCTYPE svg PUBLIC "-//W3C//DTD SVG 1.1//EN" "http://www.w3.org/Graphics/SVG/1.1/DTD/svg11.dtd"><svg t="1654565001380" class="icon" viewBox="0 0 1024 1024" version="1.1" xmlns="http://www.w3.org/2000/svg" p-id="5297" xmlns:xlink="http://www.w3.org/1999/xlink" width="16" height="16"><defs><style type="text/css">@font-face { font-family: feedback-iconfont; src: url("//at.alicdn.com/t/font_1031158_u69w8yhxdu.woff2?t=1630033759944") format("woff2"), url("//at.alicdn.com/t/font_1031158_u69w8yhxdu.woff?t=1630033759944") format("woff"), url("//at.alicdn.com/t/font_1031158_u69w8yhxdu.ttf?t=1630033759944") format("truetype"); }
</style></defs><path d="M499.8 347.8c26.5 0 42.8-18.4 42.8-42.8 0-26.5-18.4-42.8-42.8-42.8-26.5 0-53 16.3-53 42.8-0.1 24.4 26.4 42.8 53 42.8zM255 260.1c-26.5 0-53 16.3-53 42.8 0 26.5 26.5 42.8 53 42.8s42.8-18.4 42.8-42.8c0-26.5-16.3-42.8-42.8-42.8z m767 367.2c0-138.7-128.5-255-285.6-267.2V354C703.8 205 546.7 94.8 367.2 94.8 167.2 94.8 2 235.6 2 409c0 91.8 46.9 175.4 136.7 242.8l-30.6 93.8c-2 6.1 0 12.2 4.1 16.3 2 2 6.1 4.1 10.2 4.1 2 0 4.1 0 6.1-2l116.3-59.2 14.3 2c36.7 8.2 67.3 14.3 106.1 14.3 12.2 0 42.8-4.1 44.9-8.2 42.7 106.1 159 181.6 295.7 181.6 34.7 0 71.4-8.2 102-16.3l89.8 49c2 2 4.1 2 8.2 2s8.2-2 10.2-4.1c4.1-4.1 6.1-10.2 6.1-16.3l-22.4-77.5c79.5-59.2 122.3-132.6 122.3-204z m-624.2 51c-10.2 0-20.4 2-30.6 2-34.7 0-63.2-6.1-95.9-12.2l-18.4-4.1c-4.1 0-6.1 0-10.2 2l-83.6 40.8 22.4-65.3c2-6.1 0-14.3-6.1-18.4C89.7 564 46.9 492.6 46.9 409c0-148.9 144.8-271.3 322.3-271.3 157.1 0 295.8 95.9 324.4 222.4-165.2 2-297.8 118.3-297.8 259.1 0 20.4 4.1 40.8 8.2 59.2l-6.2-0.1z m467.1 128.5c-4.1 4.1-8.2 10.2-6.1 16.3l14.3 46.9-59.2-32.6c-2-2-4.1-2-8.2-2h-4.1c-30.6 8.2-63.2 16.3-95.9 16.3-146.9 0-267.2-102-267.2-226.4 2-122.4 122.4-224.4 271.3-224.4 144.8 0 267.2 104 267.2 226.4-1.9 61.2-40.7 126.4-112.1 179.5zM612 513c-18.4 0-34.7 18.4-34.7 34.7 0 18.4 18.4 34.7 34.7 34.7 26.5 0 42.8-18.4 42.8-34.7 2-16.3-16.3-34.7-42.8-34.7z m191.7 0c-16.3 0-34.7 18.4-34.7 34.7 0 18.4 18.4 34.7 34.7 34.7 26.5 0 42.8-18.4 42.8-34.7 2.1-16.3-16.3-34.7-42.8-34.7z" fill="#1296db" p-id="5298"></path></svg>