<?xml version="1.0" standalone="no"?><!DOCTYPE svg PUBLIC "-//W3C//DTD SVG 1.1//EN" "http://www.w3.org/Graphics/SVG/1.1/DTD/svg11.dtd"><svg t="1654585866856" class="icon" viewBox="0 0 1024 1024" version="1.1" xmlns="http://www.w3.org/2000/svg" p-id="8014" xmlns:xlink="http://www.w3.org/1999/xlink" width="16" height="16"><defs><style type="text/css">@font-face { font-family: feedback-iconfont; src: url("//at.alicdn.com/t/font_1031158_u69w8yhxdu.woff2?t=1630033759944") format("woff2"), url("//at.alicdn.com/t/font_1031158_u69w8yhxdu.woff?t=1630033759944") format("woff"), url("//at.alicdn.com/t/font_1031158_u69w8yhxdu.ttf?t=1630033759944") format("truetype"); }
</style></defs><path d="M384 128H128v256h256z m-64 192h-128v-128h128zM128 896h256V640H128z m64-192h128v128h-128zM640 128v256h256V128z m192 192h-128v-128h128zM640 896h256V640H640z m64-192h128v128h-128zM480 128h64v64h-64zM224 480h64v64h-64zM736 512h64v64h-64zM640 448h160v64H640zM544 240h-64v176h-96v224h64V480h96v-32h96v-64h-96v-144zM448 640h64v192h-64z" fill="#0a0707" p-id="8015"></path><path d="M512 544h64v96h-64z" fill="#0a0707" p-id="8016"></path></svg>